# xmcd
#
# Track frame offsets:
#	150
#	11194
#	23740
#	36372
#	48861
#	62325
#	74693
#	84989
#	95825
#	107116
#	119489
#	131460
#	143179
#	155761
#	168290
#	178223
#	189188
#	200309
#	212843
#
# Disc length: 3044 seconds
#
# Revision: 0
# Processed by: cddbd v1.5.2PL0 Copyright (c) Steve Scherf et al.
# Submitted via: dBpowerAMP V4.0
#
DISCID=100be213
DTITLE=Roy Orbison - Hit Story
DYEAR=2002
DGENRE=Blues
TTITLE0=Only the lonely
TTITLE1=Blue Angel
TTITLE2=In dreams
TTITLE3=Candy man
TTITLE4=Oh,pretty woman
TTITLE5=Pretty paper
TTITLE6=Lana
TTITLE7=All I have to do is dream
TTITLE8=Blue Bayou
TTITLE9=Cry
TTITLE10=Leah
TTITLE11=Dream baby
TTITLE12=It's over
TTITLE13=Crying
TTITLE14=Running scared
TTITLE15=Working for the man
TTITLE16=Goodnight
TTITLE17=Say you're my girl
TTITLE18=Ride away
EXTD=Hitstory Roy Orbison \nSony Music Media (SMM) 508936 2\n5089362000
EXTT0=
EXTT1=
EXTT2=
EXTT3=
EXTT4=
EXTT5=
EXTT6=
EXTT7=
EXTT8=
EXTT9=
EXTT10=
EXTT11=
EXTT12=
EXTT13=
EXTT14=
EXTT15=
EXTT16=
EXTT17=
EXTT18=
PLAYORDER=
